<svg width="270" height="176" viewBox="0 0 270 176" fill="none" xmlns="http://www.w3.org/2000/svg">
<g clip-path="url(#clip0_236_645)">
<path d="M159.427 11.616H129.588V12.1827H159.427V11.616Z" fill="#CCCCCC"/>
<path d="M106.285 11.616H11.6514V12.1827H106.285V11.616Z" fill="#CCCCCC"/>
<path d="M11.6514 23.5152C18.0864 23.5152 23.3029 18.3145 23.3029 11.8992C23.3029 5.48386 18.0864 0.283203 11.6514 0.283203C5.21653 0.283203 0 5.48386 0 11.8992C0 18.3145 5.21653 23.5152 11.6514 23.5152Z" fill="#3D21DB"/>
<path d="M64.7939 23.5152C71.2288 23.5152 76.4453 18.3145 76.4453 11.8992C76.4453 5.48386 71.2288 0.283203 64.7939 0.283203C58.359 0.283203 53.1425 5.48386 53.1425 11.8992C53.1425 18.3145 58.359 23.5152 64.7939 23.5152Z" fill="#3F3D56"/>
<path d="M117.935 23.799C115.574 23.799 113.267 23.1011 111.304 21.7936C109.341 20.486 107.811 18.6276 106.908 16.4533C106.004 14.2789 105.768 11.8863 106.229 9.57803C106.689 7.26975 107.826 5.14946 109.495 3.48529C111.164 1.82111 113.291 0.687797 115.606 0.228652C117.922 -0.230493 120.322 0.00515345 122.503 0.905799C124.684 1.80644 126.548 3.33163 127.859 5.2885C129.171 7.24536 129.871 9.54601 129.871 11.8995C129.871 15.0554 128.613 18.0821 126.375 20.3137C124.137 22.5453 121.101 23.799 117.935 23.799ZM117.935 0.566722C115.687 0.566722 113.489 1.23138 111.62 2.47664C109.75 3.7219 108.293 5.49184 107.433 7.56264C106.573 9.63344 106.347 11.9121 106.786 14.1104C107.225 16.3088 108.307 18.3281 109.897 19.913C111.487 21.4979 113.512 22.5773 115.717 23.0145C117.922 23.4518 120.208 23.2274 122.285 22.3696C124.362 21.5119 126.138 20.0593 127.387 18.1957C128.636 16.332 129.302 14.1409 129.302 11.8995C129.302 8.89386 128.105 6.01133 125.973 3.88602C123.841 1.76071 120.95 0.566722 117.935 0.566722Z" fill="#CCCCCC"/>
<path d="M171.078 23.799C168.717 23.799 166.409 23.1011 164.446 21.7936C162.484 20.486 160.954 18.6276 160.05 16.4533C159.147 14.2789 158.911 11.8863 159.371 9.57803C159.832 7.26975 160.968 5.14946 162.638 3.48529C164.307 1.82111 166.434 0.687797 168.749 0.228652C171.064 -0.230493 173.464 0.00515345 175.645 0.905799C177.826 1.80644 179.69 3.33163 181.002 5.2885C182.313 7.24536 183.013 9.54601 183.013 11.8995C183.013 15.0554 181.756 18.0821 179.517 20.3137C177.279 22.5453 174.243 23.799 171.078 23.799ZM171.078 0.566722C168.829 0.566722 166.632 1.23138 164.762 2.47664C162.893 3.7219 161.436 5.49184 160.575 7.56264C159.715 9.63344 159.49 11.9121 159.929 14.1104C160.367 16.3088 161.45 18.3281 163.04 19.913C164.629 21.4979 166.655 22.5773 168.86 23.0145C171.065 23.4518 173.351 23.2274 175.428 22.3696C177.505 21.5119 179.28 20.0593 180.529 18.1957C181.778 16.332 182.445 14.1409 182.445 11.8995C182.445 10.4113 182.151 8.9376 181.58 7.56264C181.008 6.18768 180.171 4.93837 179.115 3.88602C178.06 2.83367 176.807 1.9989 175.428 1.42938C174.048 0.859852 172.57 0.566722 171.078 0.566722Z" fill="#CCCCCC"/>
<path d="M10.7545 15.3627C10.5498 15.3628 10.3506 15.2966 10.187 15.1741L10.1769 15.1665L8.03835 13.5358C7.83833 13.3829 7.70743 13.1571 7.67444 12.908C7.64145 12.6589 7.70906 12.4069 7.86242 12.2075C8.01577 12.0081 8.2423 11.8776 8.49217 11.8447C8.74203 11.8118 8.99478 11.8792 9.19479 12.0321L10.5798 13.0911L13.8527 8.83393C14.006 8.63463 14.2324 8.50419 14.4822 8.4713C14.7319 8.4384 14.9845 8.50576 15.1845 8.65854L15.1643 8.68652L15.1851 8.65854C15.3848 8.81156 15.5155 9.03734 15.5484 9.28633C15.5813 9.53531 15.5138 9.78714 15.3607 9.98654L11.5108 14.9914C11.4217 15.1068 11.307 15.2002 11.1758 15.2642C11.0445 15.3283 10.9003 15.3613 10.7542 15.3608L10.7545 15.3627Z" fill="white"/>
<path d="M207.006 61.594C207.224 61.6932 207.433 61.8097 207.632 61.9423L227.543 53.4701L228.254 48.2411L236.21 48.1924L235.74 60.1862L209.459 67.116C209.404 67.298 209.337 67.4764 209.26 67.6503C208.88 68.4586 208.269 69.1369 207.503 69.6001C206.738 70.0633 205.852 70.2907 204.958 70.2537C204.063 70.2167 203.199 69.917 202.475 69.3923C201.751 68.8675 201.198 68.1411 200.886 67.3042C200.575 66.4673 200.518 65.5573 200.724 64.6885C200.929 63.8196 201.388 63.0307 202.041 62.4207C202.695 61.8107 203.515 61.4069 204.398 61.26C205.281 61.1131 206.188 61.2296 207.005 61.595L207.006 61.594Z" fill="#FEB8B8"/>
<path d="M239.103 170.273H233.66L231.071 149.345H239.104L239.103 170.273Z" fill="#FEB8B8"/>
<path d="M229.773 168.723H240.269V175.31H223.164C223.164 173.562 223.86 171.886 225.1 170.651C226.339 169.415 228.02 168.721 229.773 168.721V168.723Z" fill="#2F2E41"/>
<path d="M260.27 168.741L254.854 169.272L250.219 148.697L258.213 147.914L260.27 168.741Z" fill="#FEB8B8"/>
<path d="M250.829 168.111L261.273 167.085L261.92 173.641L244.901 175.312C244.73 173.573 245.257 171.838 246.369 170.488C247.481 169.137 249.085 168.282 250.829 168.111H250.829Z" fill="#2F2E41"/>
<path d="M240.618 26.0426C246.64 26.0426 251.521 21.1759 251.521 15.1725C251.521 9.16914 246.64 4.30243 240.618 4.30243C234.596 4.30243 229.715 9.16914 229.715 15.1725C229.715 21.1759 234.596 26.0426 240.618 26.0426Z" fill="#FEB8B8"/>
<path d="M232.444 166.041C231.976 166.042 231.523 165.878 231.164 165.578C230.806 165.279 230.565 164.863 230.484 164.403C227.669 148.816 218.459 97.8391 218.238 96.426C218.233 96.3935 218.231 96.3607 218.231 96.3279V92.5265C218.231 92.3881 218.274 92.2531 218.355 92.1405L219.571 90.4432C219.629 90.3615 219.705 90.294 219.793 90.2461C219.881 90.1981 219.979 90.171 220.079 90.1666C227.016 89.8426 249.727 88.8924 250.824 90.259C251.926 91.631 251.534 95.7945 251.446 96.6146L251.45 96.7001L261.654 161.759C261.734 162.277 261.606 162.807 261.297 163.232C260.988 163.658 260.524 163.945 260.004 164.031L253.631 165.078C253.157 165.154 252.67 165.057 252.261 164.806C251.852 164.555 251.546 164.166 251.4 163.709C249.429 157.429 242.82 136.305 240.529 128.131C240.517 128.077 240.484 128.03 240.439 127.999C240.393 127.967 240.337 127.954 240.282 127.962C240.227 127.97 240.177 127.998 240.143 128.041C240.108 128.084 240.09 128.139 240.094 128.194C240.208 135.986 240.485 155.865 240.582 162.732L240.592 163.471C240.596 163.972 240.412 164.456 240.076 164.828C239.739 165.199 239.275 165.432 238.775 165.479L232.63 166.034C232.568 166.039 232.506 166.042 232.444 166.041Z" fill="#2F2E41"/>
<path d="M233.698 30.3171C231.795 31.4448 230.657 33.5168 230.003 35.6291C228.794 39.5332 228.066 43.5696 227.835 47.6493L227.144 59.8634L218.596 92.2471C226.005 98.4967 230.278 97.076 240.252 91.9642C250.225 86.8524 251.364 93.6684 251.364 93.6684L253.358 66.1143L256.207 36.0047C255.568 35.2369 254.844 34.5431 254.049 33.9361C251.416 31.8941 248.352 30.4746 245.088 29.7846C241.824 29.0946 238.446 29.1521 235.208 29.9528L233.698 30.3171Z" fill="#E6E6E6"/>
<path d="M230.922 68.1341C231.152 68.2198 231.374 68.3234 231.588 68.444L251.276 58.6187L251.603 53.2963L259.724 52.7381L260.159 64.8708L233.849 73.546C233.634 74.4652 233.144 75.2974 232.443 75.932C231.743 76.5665 230.865 76.9733 229.926 77.0983C228.988 77.2233 228.034 77.0605 227.191 76.6315C226.348 76.2026 225.655 75.5279 225.206 74.6971C224.757 73.8663 224.572 72.9189 224.676 71.9809C224.781 71.0429 225.169 70.1588 225.789 69.4461C226.41 68.7334 227.233 68.226 228.15 67.9914C229.067 67.7567 230.034 67.8059 230.922 68.1325L230.922 68.1341Z" fill="#FEB8B8"/>
<path d="M256.066 36.1404C260.909 37.8447 261.763 56.3106 261.763 56.3106C256.064 53.186 249.226 58.299 249.226 58.299C249.226 58.299 247.802 53.4695 246.092 47.2205C245.576 45.4627 245.514 43.6032 245.912 41.8151C246.311 40.0271 247.157 38.3686 248.371 36.9941C248.371 36.9941 251.221 34.4352 256.066 36.1404Z" fill="#E6E6E6"/>
<path d="M250.393 18.0463C249.034 16.9629 247.181 18.9315 247.181 18.9315L246.094 9.18254C246.094 9.18254 239.302 9.9938 234.954 8.9116C230.606 7.8294 229.927 12.8406 229.927 12.8406C229.703 10.8168 229.658 8.77732 229.792 6.74562C230.063 4.30776 233.595 1.8699 239.844 0.244556C246.093 -1.38079 249.354 5.66216 249.354 5.66216C253.703 7.82751 251.753 19.1311 250.393 18.0463Z" fill="#2F2E41"/>
<path d="M270 175.312H37.5182V176H270V175.312Z" fill="#E6E6E6"/>
<path d="M59.9455 163.156C60.9403 163.504 62.0084 163.592 63.0469 163.409C64.0854 163.227 65.0592 162.781 65.8746 162.114C67.9514 160.377 68.6024 157.514 69.1321 154.863L70.699 147.022L67.4186 149.274C65.0593 150.894 62.6471 152.565 61.0134 154.911C59.3796 157.257 58.6667 160.459 59.9792 162.997" fill="#E6E6E6"/>
<path d="M60.4522 173.194C60.0392 170.195 59.6145 167.157 59.9042 164.126C60.1615 161.434 60.9853 158.805 62.6626 156.649C63.5528 155.506 64.6361 154.528 65.8636 153.757C66.1836 153.555 66.4784 154.061 66.1597 154.262C64.0352 155.6 62.3919 157.576 61.4667 159.905C60.4452 162.496 60.2813 165.319 60.4578 168.07C60.5644 169.734 60.7898 171.387 61.0171 173.038C61.035 173.113 61.0238 173.191 60.9858 173.258C60.9477 173.325 60.8857 173.375 60.8122 173.398C60.7372 173.418 60.6573 173.408 60.5898 173.369C60.5223 173.331 60.4726 173.268 60.4515 173.193L60.4522 173.194Z" fill="#F2F2F2"/>
<path d="M63.4243 168.382C63.851 169.028 64.4374 169.554 65.1272 169.909C65.8169 170.264 66.5867 170.436 67.3625 170.408C69.356 170.314 71.0181 168.927 72.5141 167.611L76.9394 163.716L74.0107 163.576C71.9047 163.476 69.7441 163.382 67.7367 164.03C65.7293 164.677 63.8805 166.235 63.5139 168.304" fill="#E6E6E6"/>
<path d="M59.285 174.918C61.2713 171.412 63.5785 167.514 67.6982 166.269C68.8437 165.924 70.0448 165.8 71.2369 165.904C71.6127 165.936 71.5188 166.514 71.1423 166.482C69.1441 166.316 67.1498 166.842 65.4951 167.971C63.9026 169.052 62.6629 170.554 61.6137 172.147C60.9708 173.122 60.3951 174.141 59.8194 175.156C59.6359 175.481 59.0999 175.247 59.285 174.918Z" fill="#F2F2F2"/>
<path d="M199.388 73.7384H99.8583C99.3696 73.7378 98.9012 73.544 98.5556 73.1996C98.2101 72.8551 98.0157 72.388 98.0151 71.9009V47.2869C98.0157 46.7997 98.2101 46.3327 98.5556 45.9882C98.9012 45.6437 99.3696 45.4499 99.8583 45.4493H199.388C199.877 45.4499 200.345 45.6437 200.691 45.9882C201.036 46.3327 201.231 46.7997 201.231 47.2869V71.9009C201.231 72.388 201.036 72.8551 200.691 73.1996C200.345 73.544 199.877 73.7378 199.388 73.7384ZM99.8583 46.1845C99.565 46.1849 99.2839 46.3011 99.0766 46.5078C98.8692 46.7146 98.7526 46.9948 98.7523 47.2872V71.9012C98.7525 72.1936 98.8691 72.4739 99.0765 72.6806C99.2838 72.8873 99.565 73.0036 99.8583 73.0038H199.388C199.682 73.0036 199.963 72.8873 200.17 72.6806C200.377 72.4739 200.494 72.1936 200.494 71.9012V47.2869C200.494 46.9945 200.377 46.7142 200.17 46.5074C199.963 46.3007 199.682 46.1845 199.388 46.1842L99.8583 46.1845Z" fill="#E6E6E6"/>
<path d="M132.663 53.6591C132.331 53.6591 132.013 53.7905 131.778 54.0245C131.544 54.2584 131.412 54.5757 131.412 54.9066C131.412 55.2375 131.544 55.5548 131.778 55.7887C132.013 56.0227 132.331 56.1541 132.663 56.1541H191.654C191.986 56.1541 192.305 56.0227 192.539 55.7887C192.774 55.5548 192.906 55.2375 192.906 54.9066C192.906 54.5757 192.774 54.2584 192.539 54.0245C192.305 53.7905 191.986 53.6591 191.654 53.6591H132.663Z" fill="#E6E6E6"/>
<path d="M132.663 61.1446C132.331 61.1446 132.013 61.276 131.778 61.51C131.544 61.7439 131.412 62.0613 131.412 62.3921C131.412 62.723 131.544 63.0403 131.778 63.2743C132.013 63.5082 132.331 63.6397 132.663 63.6397H158.047C158.379 63.6397 158.698 63.5082 158.932 63.2743C159.167 63.0403 159.299 62.723 159.299 62.3921C159.299 62.0613 159.167 61.7439 158.932 61.51C158.698 61.276 158.379 61.1446 158.047 61.1446H132.663Z" fill="#E6E6E6"/>
<path d="M115.394 66.0778C119.54 66.0778 122.902 62.7266 122.902 58.5926C122.902 54.4587 119.54 51.1074 115.394 51.1074C111.247 51.1074 107.886 54.4587 107.886 58.5926C107.886 62.7266 111.247 66.0778 115.394 66.0778Z" fill="#E6E6E6"/>
<path d="M114.214 62.7526C113.962 62.753 113.716 62.6716 113.514 62.5207L113.502 62.5112L110.867 60.5015C110.62 60.3131 110.458 60.0347 110.418 59.7276C110.377 59.4205 110.46 59.1098 110.649 58.8639C110.838 58.618 111.117 58.4569 111.425 58.4163C111.733 58.3756 112.045 58.4586 112.292 58.647L113.998 59.9517L118.032 54.7057C118.221 54.4601 118.5 54.2994 118.807 54.2588C119.115 54.2183 119.426 54.3013 119.673 54.4895L119.648 54.5241L119.674 54.4895C119.92 54.678 120.081 54.9562 120.122 55.263C120.162 55.5698 120.079 55.8801 119.89 56.1258L115.146 62.2972C115.037 62.4393 114.896 62.5542 114.734 62.6331C114.573 62.7121 114.395 62.7528 114.215 62.7523L114.214 62.7526Z" fill="#3D21DB"/>
</g>
<defs>
<clipPath id="clip0_236_645">
<rect width="270" height="176" fill="white"/>
</clipPath>
</defs>
</svg>
